<svg width="32" height="32" viewBox="0 0 32 32" fill="none" xmlns="http://www.w3.org/2000/svg">
<rect width="32" height="32" rx="16" fill="#44454A" fill-opacity="0.93"/>
<path d="M13.2294 11.1981C13.0825 11.325 13 11.4971 13 11.6765C13 11.8559 13.0825 12.028 13.2294 12.1548L17.1085 15.5041L13.2294 18.8533C13.0867 18.9809 13.0077 19.1519 13.0095 19.3293C13.0113 19.5067 13.0937 19.6764 13.239 19.8018C13.3843 19.9273 13.5808 19.9984 13.7863 20C13.9918 20.0015 14.1897 19.9333 14.3375 19.8101L18.7706 15.9825C18.9175 15.8556 19 15.6835 19 15.5041C19 15.3247 18.9175 15.1526 18.7706 15.0257L14.3375 11.1981C14.1906 11.0713 13.9913 11 13.7835 11C13.5757 11 13.3764 11.0713 13.2294 11.1981Z" fill="#A7A7A9"/>
</svg>
