<svg width="40" height="40" viewBox="0 0 40 40" fill="none" xmlns="http://www.w3.org/2000/svg">
<rect width="40" height="40" rx="5" fill="#5F3137"/>
<path fill-rule="evenodd" clip-rule="evenodd" d="M23.5714 13.0312C23.5714 12.0781 23.1952 11.164 22.5254 10.4901C21.8556 9.81613 20.9472 9.4375 20 9.4375C19.0528 9.4375 18.1444 9.81613 17.4746 10.4901C16.8048 11.164 16.4286 12.0781 16.4286 13.0312V13.75H23.5714V13.0312ZM25 13.0312V13.75H30V28.125C30 28.8875 29.699 29.6188 29.1632 30.1579C28.6273 30.6971 27.9006 31 27.1429 31H12.8571C12.0994 31 11.3727 30.6971 10.8368 30.1579C10.301 29.6188 10 28.8875 10 28.125V13.75H15V13.0312C15 11.6969 15.5268 10.4172 16.4645 9.47362C17.4021 8.53008 18.6739 8 20 8C21.3261 8 22.5979 8.53008 23.5355 9.47362C24.4732 10.4172 25 11.6969 25 13.0312ZM18.3629 19.7099C18.2964 19.643 18.2176 19.59 18.1308 19.5539C18.0441 19.5177 17.9511 19.4991 17.8571 19.4991C17.7632 19.4991 17.6702 19.5177 17.5835 19.5539C17.4967 19.59 17.4178 19.643 17.3514 19.7099C17.285 19.7767 17.2323 19.856 17.1964 19.9433C17.1605 20.0307 17.142 20.1242 17.142 20.2188C17.142 20.3133 17.1605 20.4068 17.1964 20.4942C17.2323 20.5815 17.285 20.6608 17.3514 20.7276L18.99 22.375L17.3514 24.0224C17.2173 24.1573 17.142 24.3404 17.142 24.5312C17.142 24.7221 17.2173 24.9052 17.3514 25.0401C17.4856 25.1751 17.6675 25.2509 17.8571 25.2509C18.0468 25.2509 18.2287 25.1751 18.3629 25.0401L20 23.3913L21.6371 25.0401C21.7713 25.1751 21.9532 25.2509 22.1429 25.2509C22.3325 25.2509 22.5144 25.1751 22.6486 25.0401C22.7827 24.9052 22.858 24.7221 22.858 24.5312C22.858 24.3404 22.7827 24.1573 22.6486 24.0224L21.01 22.375L22.6486 20.7276C22.7827 20.5927 22.858 20.4096 22.858 20.2188C22.858 20.0279 22.7827 19.8448 22.6486 19.7099C22.5144 19.5749 22.3325 19.4991 22.1429 19.4991C21.9532 19.4991 21.7713 19.5749 21.6371 19.7099L20 21.3587L18.3629 19.7099Z" fill="#F25E5E"/>
</svg>
