<svg width="40" height="40" viewBox="0 0 40 40" fill="none" xmlns="http://www.w3.org/2000/svg">
<rect width="40" height="40" rx="5" fill="#165145"/>
<path fill-rule="evenodd" clip-rule="evenodd" d="M24.0938 13.0312C24.0938 12.0781 23.7151 11.164 23.0412 10.4901C22.3672 9.81613 21.4531 9.4375 20.5 9.4375C19.5469 9.4375 18.6328 9.81613 17.9588 10.4901C17.2849 11.164 16.9062 12.0781 16.9062 13.0312V13.75H24.0938V13.0312ZM25.5312 13.0312V13.75H30.5625V28.125C30.5625 28.8875 30.2596 29.6188 29.7204 30.1579C29.1813 30.6971 28.45 31 27.6875 31H13.3125C12.55 31 11.8187 30.6971 11.2796 30.1579C10.7404 29.6188 10.4375 28.8875 10.4375 28.125V13.75H15.4688V13.0312C15.4688 11.6969 15.9988 10.4172 16.9424 9.47362C17.8859 8.53008 19.1656 8 20.5 8C21.8344 8 23.1141 8.53008 24.0576 9.47362C25.0012 10.4172 25.5312 11.6969 25.5312 13.0312ZM21.2188 19.5C21.2188 19.3094 21.143 19.1266 21.0082 18.9918C20.8734 18.857 20.6906 18.7812 20.5 18.7812C20.3094 18.7812 20.1266 18.857 19.9918 18.9918C19.857 19.1266 19.7812 19.3094 19.7812 19.5V21.6562H17.625C17.4344 21.6562 17.2516 21.732 17.1168 21.8668C16.982 22.0016 16.9062 22.1844 16.9062 22.375C16.9062 22.5656 16.982 22.7484 17.1168 22.8832C17.2516 23.018 17.4344 23.0938 17.625 23.0938H19.7812V25.25C19.7812 25.4406 19.857 25.6234 19.9918 25.7582C20.1266 25.893 20.3094 25.9688 20.5 25.9688C20.6906 25.9688 20.8734 25.893 21.0082 25.7582C21.143 25.6234 21.2188 25.4406 21.2188 25.25V23.0938H23.375C23.5656 23.0938 23.7484 23.018 23.8832 22.8832C24.018 22.7484 24.0938 22.5656 24.0938 22.375C24.0938 22.1844 24.018 22.0016 23.8832 21.8668C23.7484 21.732 23.5656 21.6562 23.375 21.6562H21.2188V19.5Z" fill="#02C78D"/>
</svg>
