<svg width="40" height="40" viewBox="0 0 40 40" fill="none" xmlns="http://www.w3.org/2000/svg">
<rect width="40" height="40" rx="5" fill="#293368"/>
<path d="M16.8935 10.1356C16.9441 10.0511 16.9776 9.95748 16.992 9.86003C17.0065 9.76259 17.0016 9.66325 16.9776 9.5677C16.9537 9.47215 16.9111 9.38225 16.8524 9.30314C16.7937 9.22403 16.72 9.15726 16.6355 9.10664C16.551 9.05601 16.4573 9.02253 16.3599 9.00809C16.2625 8.99366 16.1631 8.99856 16.0676 9.02252C15.972 9.04648 15.8821 9.08902 15.803 9.14772C15.7239 9.20642 15.6571 9.28013 15.6065 9.36464L11.3255 16.5001H8.75C8.55109 16.5001 8.36032 16.5792 8.21967 16.7198C8.07902 16.8605 8 17.0512 8 17.2501V18.7501C8 18.949 8.07902 19.1398 8.21967 19.2805C8.36032 19.4211 8.55109 19.5001 8.75 19.5001H9.6845L12.4505 29.1841C12.5178 29.4197 12.6601 29.6268 12.8558 29.7741C13.0516 29.9214 13.29 30.0007 13.535 30.0001H26.468C26.7127 30.0004 26.9508 29.9209 27.1463 29.7736C27.3417 29.6264 27.4838 29.4194 27.551 29.1841L30.3155 19.5001H31.25C31.4489 19.5001 31.6397 19.4211 31.7803 19.2805C31.921 19.1398 32 18.949 32 18.7501V17.2501C32 17.0512 31.921 16.8605 31.7803 16.7198C31.6397 16.5792 31.4489 16.5001 31.25 16.5001H28.6745L24.395 9.36464C24.3444 9.28013 24.2776 9.20642 24.1985 9.14772C24.1194 9.08902 24.0295 9.04648 23.9339 9.02252C23.8384 8.99856 23.739 8.99366 23.6416 9.00809C23.5442 9.02253 23.4505 9.05601 23.366 9.10664C23.2815 9.15726 23.2078 9.22403 23.1491 9.30314C23.0904 9.38225 23.0478 9.47215 23.0239 9.5677C22.9999 9.66325 22.995 9.76259 23.0095 9.86003C23.0239 9.95748 23.0574 10.0511 23.108 10.1356L26.9255 16.5001H13.0745L16.8935 10.1356ZM14 22.5001C14 22.1023 14.158 21.7208 14.4393 21.4395C14.7206 21.1582 15.1022 21.0001 15.5 21.0001C15.8978 21.0001 16.2794 21.1582 16.5607 21.4395C16.842 21.7208 17 22.1023 17 22.5001V25.5001C17 25.898 16.842 26.2795 16.5607 26.5608C16.2794 26.8421 15.8978 27.0001 15.5 27.0001C15.1022 27.0001 14.7206 26.8421 14.4393 26.5608C14.158 26.2795 14 25.898 14 25.5001V22.5001ZM18.5 22.5001C18.5 22.1023 18.658 21.7208 18.9393 21.4395C19.2206 21.1582 19.6022 21.0001 20 21.0001C20.3978 21.0001 20.7794 21.1582 21.0607 21.4395C21.342 21.7208 21.5 22.1023 21.5 22.5001V25.5001C21.5 25.898 21.342 26.2795 21.0607 26.5608C20.7794 26.8421 20.3978 27.0001 20 27.0001C19.6022 27.0001 19.2206 26.8421 18.9393 26.5608C18.658 26.2795 18.5 25.898 18.5 25.5001V22.5001ZM24.5 21.0001C24.8978 21.0001 25.2794 21.1582 25.5607 21.4395C25.842 21.7208 26 22.1023 26 22.5001V25.5001C26 25.898 25.842 26.2795 25.5607 26.5608C25.2794 26.8421 24.8978 27.0001 24.5 27.0001C24.1022 27.0001 23.7206 26.8421 23.4393 26.5608C23.158 26.2795 23 25.898 23 25.5001V22.5001C23 22.1023 23.158 21.7208 23.4393 21.4395C23.7206 21.1582 24.1022 21.0001 24.5 21.0001Z" fill="#7194FD"/>
</svg>
