<svg width="40" height="40" viewBox="0 0 40 40" fill="none" xmlns="http://www.w3.org/2000/svg">
<rect width="40" height="40" rx="5" fill="#592B4B"/>
<g clip-path="url(#clip0_2036_2327)">
<path fill-rule="evenodd" clip-rule="evenodd" d="M11 10H12.1875V27.8125H30V29H11V10ZM22.875 23.6562C22.875 23.8137 22.9376 23.9647 23.0489 24.0761C23.1603 24.1874 23.3113 24.25 23.4688 24.25H28.2188C28.3762 24.25 28.5272 24.1874 28.6386 24.0761C28.7499 23.9647 28.8125 23.8137 28.8125 23.6562V18.9062C28.8125 18.7488 28.7499 18.5978 28.6386 18.4864C28.5272 18.3751 28.3762 18.3125 28.2188 18.3125C28.0613 18.3125 27.9103 18.3751 27.7989 18.4864C27.6876 18.5978 27.625 18.7488 27.625 18.9062V21.9938L23.3346 16.7486C23.282 16.6845 23.2167 16.6321 23.1427 16.5947C23.0687 16.5574 22.9877 16.536 22.9049 16.5318C22.8222 16.5277 22.7394 16.5409 22.6621 16.5707C22.5847 16.6005 22.5145 16.6461 22.4558 16.7046L19.3837 19.7767L15.0423 13.8071C14.9473 13.6864 14.8092 13.6071 14.657 13.586C14.5048 13.5649 14.3504 13.6037 14.2262 13.6941C14.1019 13.7845 14.0176 13.9195 13.9908 14.0708C13.9641 14.2221 13.997 14.3779 14.0827 14.5054L18.8328 21.0366C18.8832 21.1061 18.948 21.1638 19.0229 21.2057C19.0978 21.2477 19.1808 21.2729 19.2664 21.2797C19.3519 21.2865 19.438 21.2746 19.5185 21.245C19.599 21.2153 19.6722 21.1685 19.7329 21.1079L22.8311 18.0085L26.9659 23.0625H23.4688C23.3113 23.0625 23.1603 23.1251 23.0489 23.2364C22.9376 23.3478 22.875 23.4988 22.875 23.6562Z" fill="#EC41A9"/>
</g>
<defs>
<clipPath id="clip0_2036_2327">
<rect width="19" height="19" fill="white" transform="translate(11 10)"/>
</clipPath>
</defs>
</svg>
